# xmcd CD database file
#
# Track frame offsets:
#	150
#	10672
#	21162
#	31215
#	44221
#	54094
#	62924
#	74297
#	84758
#	95110
#	107205
#	121491
#
# Disc length: 1752 seconds
#
# Revision: 0
# Processed by: cddbd v1.5.2PL0 Copyright (c) Steve Scherf et al.
# Submitted via: CDex 1.70beta2
#
DISCID=9c06d60c
DTITLE=Gilley, Mickey -  At His Best-Volume 1
DYEAR=2007
DGENRE=Country
TTITLE0=Now I Can Live Again
TTITLE1=Down The Line
TTITLE2=My Babe
TTITLE3=Turn Around
TTITLE4=Night After Night
TTITLE5=Is It Wrong
TTITLE6=A World Of My Own
TTITLE7=Forgive
TTITLE8=I'm To Blame
TTITLE9=You Can Count Me Missing
TTITLE10=I'll Make It All Up To You
TTITLE11=Lonely Wine
EXTD=YEAR: 2007
EXTT0=
EXTT1=
EXTT2=
EXTT3=
EXTT4=
EXTT5=
EXTT6=
EXTT7=
EXTT8=
EXTT9=
EXTT10=
EXTT11=
PLAYORDER=
